<svg width="678" height="270" viewBox="0 0 678 270" fill="none" xmlns="http://www.w3.org/2000/svg">
<path d="M351.303 47.6967L346 42.3934L335.393 53L340.697 58.3033L351.303 47.6967ZM411 125.5C415.142 125.5 418.5 122.142 418.5 118L418.5 50.5C418.5 46.3579 415.142 43 411 43C406.858 43 403.5 46.3579 403.5 50.5L403.5 110.5L343.5 110.5C339.358 110.5 336 113.858 336 118C336 122.142 339.358 125.5 343.5 125.5L411 125.5ZM340.697 58.3033L405.697 123.303L416.303 112.697L351.303 47.6967L340.697 58.3033Z" fill="#49E279"/>
<path d="M10.6865 238V148.4H52.0305C58.0892 148.4 63.5078 149.637 68.2865 152.112C73.0652 154.587 76.7772 157.957 79.4225 162.224C82.1532 166.491 83.5185 171.397 83.5185 176.944C83.5185 182.917 82.1532 188.208 79.4225 192.816C76.7772 197.424 73.0652 201.051 68.2865 203.696C63.5078 206.256 58.0892 207.536 52.0305 207.536H34.4945V238H10.6865ZM58.6865 238L35.9025 197.552L61.8865 194.352L87.2305 238H58.6865ZM34.4945 189.36H48.5745C50.7932 189.36 52.6278 188.933 54.0785 188.08C55.6145 187.141 56.7665 185.904 57.5345 184.368C58.3878 182.747 58.8145 180.869 58.8145 178.736C58.8145 176.688 58.3878 174.939 57.5345 173.488C56.6812 171.952 55.4012 170.8 53.6945 170.032C52.0732 169.179 50.0252 168.752 47.5505 168.752H34.4945V189.36ZM139.352 238.768C131.757 238.768 124.973 237.275 119 234.288C113.112 231.216 108.461 227.035 105.048 221.744C101.72 216.453 100.056 210.395 100.056 203.568V148.4H125.656V202.416C125.656 205.232 126.253 207.749 127.448 209.968C128.642 212.101 130.264 213.808 132.312 215.088C134.445 216.283 136.792 216.88 139.352 216.88C142.168 216.88 144.642 216.283 146.776 215.088C148.909 213.808 150.616 212.101 151.896 209.968C153.176 207.749 153.816 205.232 153.816 202.416V148.4H178.648V203.568C178.648 210.395 176.941 216.453 173.528 221.744C170.2 227.035 165.592 231.216 159.704 234.288C153.816 237.275 147.032 238.768 139.352 238.768ZM199.812 238V148.4H222.468L265.988 208.048L260.74 206.768C260.313 203.611 259.929 200.752 259.588 198.192C259.332 195.632 259.076 193.2 258.82 190.896C258.649 188.592 258.478 186.288 258.308 183.984C258.222 181.68 258.18 179.163 258.18 176.432C258.18 173.701 258.18 170.629 258.18 167.216V148.4H282.628V238H259.715L212.868 174L221.7 176.176C222.126 179.675 222.468 182.704 222.724 185.264C223.065 187.824 223.321 190.128 223.492 192.176C223.662 194.224 223.79 196.187 223.876 198.064C224.046 199.941 224.132 201.947 224.132 204.08C224.217 206.213 224.26 208.645 224.26 211.376V238H199.812ZM303.937 238V148.4H326.593L370.113 208.048L364.865 206.768C364.438 203.611 364.054 200.752 363.713 198.192C363.457 195.632 363.201 193.2 362.945 190.896C362.774 188.592 362.603 186.288 362.433 183.984C362.347 181.68 362.305 179.163 362.305 176.432C362.305 173.701 362.305 170.629 362.305 167.216V148.4H386.753V238H363.84L316.993 174L325.825 176.176C326.251 179.675 326.593 182.704 326.849 185.264C327.19 187.824 327.446 190.128 327.617 192.176C327.787 194.224 327.915 196.187 328.001 198.064C328.171 199.941 328.257 201.947 328.257 204.08C328.342 206.213 328.385 208.645 328.385 211.376V238H303.937ZM406.91 238V217.264H422.526V169.136H406.91V148.4H463.358V169.136H447.87V217.264H463.358V238H406.91ZM483.562 238V148.4H506.218L549.738 208.048L544.49 206.768C544.063 203.611 543.679 200.752 543.338 198.192C543.082 195.632 542.826 193.2 542.57 190.896C542.399 188.592 542.228 186.288 542.058 183.984C541.972 181.68 541.93 179.163 541.93 176.432C541.93 173.701 541.93 170.629 541.93 167.216V148.4H566.378V238H543.465L496.618 174L505.45 176.176C505.876 179.675 506.218 182.704 506.474 185.264C506.815 187.824 507.071 190.128 507.242 192.176C507.412 194.224 507.54 196.187 507.626 198.064C507.796 199.941 507.882 201.947 507.882 204.08C507.967 206.213 508.01 208.645 508.01 211.376V238H483.562ZM629.927 239.28C622.503 239.28 615.847 238.128 609.958 235.824C604.071 233.52 599.036 230.277 594.855 226.096C590.759 221.915 587.644 216.965 585.51 211.248C583.377 205.531 582.311 199.344 582.311 192.688C582.311 185.947 583.463 179.76 585.767 174.128C588.156 168.411 591.569 163.461 596.007 159.28C600.444 155.099 605.649 151.856 611.623 149.552C617.681 147.248 624.38 146.096 631.719 146.096C636.753 146.096 641.489 146.736 645.927 148.016C650.449 149.296 654.503 151.045 658.087 153.264C661.671 155.483 664.743 157.957 667.303 160.688L652.199 176.816C650.321 175.024 648.316 173.488 646.183 172.208C644.135 170.928 641.873 169.904 639.399 169.136C637.009 168.368 634.321 167.984 631.335 167.984C628.007 167.984 624.935 168.624 622.119 169.904C619.388 171.099 616.999 172.805 614.951 175.024C612.903 177.157 611.281 179.76 610.087 182.832C608.977 185.819 608.423 189.104 608.423 192.688C608.423 196.187 609.02 199.472 610.215 202.544C611.409 205.531 613.073 208.133 615.207 210.352C617.34 212.571 619.857 214.32 622.759 215.6C625.745 216.795 628.945 217.392 632.359 217.392C634.748 217.392 636.967 217.008 639.015 216.24C641.063 215.472 642.812 214.448 644.263 213.168C645.799 211.803 646.993 210.224 647.847 208.432C648.7 206.555 649.127 204.549 649.127 202.416V198.832L652.455 204.208H628.903V185.776H672.167C672.252 186.715 672.337 188.165 672.423 190.128C672.593 192.005 672.679 193.883 672.679 195.76C672.764 197.637 672.807 198.96 672.807 199.728C672.807 205.445 671.74 210.736 669.607 215.6C667.473 220.464 664.487 224.645 660.647 228.144C656.807 231.643 652.284 234.373 647.079 236.336C641.873 238.299 636.156 239.28 629.927 239.28Z" fill="black"/>
<path d="M10.6865 128V38.4H36.0305V106.112H75.0705V128H10.6865ZM128.927 129.28C122.015 129.28 115.657 128.128 109.854 125.824C104.052 123.52 99.0172 120.277 94.7505 116.096C90.4838 111.915 87.1558 107.008 84.7665 101.376C82.4625 95.6587 81.3105 89.4293 81.3105 82.688C81.3105 75.8613 82.4625 69.632 84.7665 64C87.1558 58.368 90.4838 53.4613 94.7505 49.28C99.0172 45.0987 104.052 41.856 109.854 39.552C115.657 37.248 122.015 36.096 128.927 36.096C135.839 36.096 142.153 37.248 147.871 39.552C153.673 41.856 158.708 45.0987 162.975 49.28C167.327 53.4613 170.655 58.368 172.959 64C175.263 69.632 176.415 75.8187 176.415 82.56C176.415 89.3867 175.263 95.6587 172.959 101.376C170.655 107.008 167.327 111.915 162.975 116.096C158.708 120.277 153.673 123.52 147.871 125.824C142.153 128.128 135.839 129.28 128.927 129.28ZM128.927 105.728C131.999 105.728 134.857 105.173 137.503 104.064C140.148 102.955 142.452 101.376 144.415 99.328C146.377 97.1947 147.871 94.72 148.895 91.904C150.004 89.088 150.559 86.016 150.559 82.688C150.559 79.36 150.004 76.288 148.895 73.472C147.871 70.656 146.377 68.224 144.415 66.176C142.452 64.0427 140.148 62.4213 137.503 61.312C134.857 60.2027 131.999 59.648 128.927 59.648C125.769 59.648 122.868 60.2027 120.223 61.312C117.577 62.4213 115.273 64.0427 113.311 66.176C111.348 68.224 109.812 70.656 108.703 73.472C107.679 76.2027 107.167 79.2747 107.167 82.688C107.167 86.016 107.679 89.088 108.703 91.904C109.812 94.72 111.348 97.1947 113.311 99.328C115.273 101.376 117.577 102.955 120.223 104.064C122.868 105.173 125.769 105.728 128.927 105.728ZM206.535 128L180.55 38.4H206.023L217.671 81.408C218.268 83.8827 218.78 86.3147 219.207 88.704C219.719 91.008 220.103 93.184 220.359 95.232C220.615 97.1947 220.828 99.0293 220.999 100.736C221.169 102.443 221.297 103.851 221.383 104.96H218.951C219.207 102.4 219.42 99.9253 219.591 97.536C219.847 95.0613 220.231 92.544 220.743 89.984C221.255 87.3387 222.023 84.48 223.047 81.408L235.079 48.384H254.663L266.567 81.408C267.761 84.6507 268.657 87.6373 269.255 90.368C269.937 93.0133 270.449 95.5307 270.791 97.92C271.132 100.309 271.388 102.613 271.559 104.832L269.383 104.96C269.468 103.68 269.511 102.4 269.511 101.12C269.511 99.84 269.553 98.5173 269.639 97.152C269.724 95.7013 269.852 94.1653 270.023 92.544C270.193 90.9227 270.449 89.216 270.791 87.424C271.132 85.5467 271.559 83.5413 272.071 81.408L283.719 38.4H308.423L282.311 128H262.599L242.375 78.464H245.447L227.271 128H206.535Z" fill="black"/>
</svg>
